<svg xmlns="http://www.w3.org/2000/svg" viewBox="0 0 350.6 201.24"><defs><style>.cls-1,.cls-3{fill:#00416d;}.cls-2{fill:#d21312;}.cls-3{fill-rule:evenodd;}</style></defs><g id="Layer_2" data-name="Layer 2"><g id="Layer_1-2" data-name="Layer 1"><path class="cls-1" d="M95.86,135.47h2.22l3.53,8.36H99.14l-.6-1.49h-3.2l-.6,1.49H92.32Zm2,5.08L97,138.19,96,140.55Z"/><rect class="cls-1" x="102.33" y="135.17" width="2.25" height="8.66"/><polygon class="cls-1" points="109.26 135.53 111.41 135.53 114.82 139.91 114.82 135.53 117.1 135.53 117.1 143.83 115.08 143.83 111.54 139.27 111.54 143.83 109.26 143.83 109.26 135.53"/><path class="cls-1" d="M118.12,142v0c0-1.33,1-2,2.51-2a4.84,4.84,0,0,1,1.54.25v-.11c0-.66-.41-1-1.28-1a4.6,4.6,0,0,0-1.76.35l-.47-1.59a6.62,6.62,0,0,1,2.6-.49,3.29,3.29,0,0,1,2.44.78,2.66,2.66,0,0,1,.69,2v3.69h-2.23v-.67a2.4,2.4,0,0,1-1.88.81,2,2,0,0,1-2.16-2m4.08-.49v-.29a2.3,2.3,0,0,0-.88-.17c-.65,0-1,.32-1,.79v0a.7.7,0,0,0,.79.7,1,1,0,0,0,1.12-1.06"/><path class="cls-1" d="M125.54,135.17h2.25v3.12a2.36,2.36,0,0,1,1.93-1,2.1,2.1,0,0,1,2.18,2.36v4.2h-2.26v-3.48c0-.7-.36-1.08-.9-1.08a1,1,0,0,0-1,1.08v3.48h-2.25Z"/><path class="cls-1" d="M132.82,140.65v0c0-2.08,1.31-3.35,2.83-3.35a2.44,2.44,0,0,1,2,.92v-3h2.26v8.66h-2.26V143a2.34,2.34,0,0,1-2,1c-1.52,0-2.84-1.27-2.84-3.32m4.83,0v0a1.32,1.32,0,1,0-2.62,0v0a1.32,1.32,0,1,0,2.62,0"/><path class="cls-1" d="M140.76,142v0c0-1.33,1-2,2.51-2a4.9,4.9,0,0,1,1.54.25v-.11c0-.66-.41-1-1.28-1a4.65,4.65,0,0,0-1.77.35l-.46-1.59a6.62,6.62,0,0,1,2.6-.49,3.29,3.29,0,0,1,2.44.78,2.66,2.66,0,0,1,.69,2v3.69H144.8v-.67a2.4,2.4,0,0,1-1.88.81,2,2,0,0,1-2.16-2m4.08-.49v-.29A2.3,2.3,0,0,0,144,141c-.65,0-1,.32-1,.79v0a.7.7,0,0,0,.79.7,1,1,0,0,0,1.12-1.06"/><path class="cls-1" d="M151,142.59l1.28-1.53a4.24,4.24,0,0,0,2.69,1c.62,0,.95-.21.95-.57v0c0-.35-.27-.54-1.4-.8-1.77-.4-3.13-.9-3.13-2.61v0c0-1.54,1.22-2.66,3.21-2.66a5.21,5.21,0,0,1,3.42,1.11l-1.15,1.62a4.2,4.2,0,0,0-2.33-.82c-.55,0-.83.24-.83.54v0c0,.38.29.55,1.44.81,1.91.41,3.09,1,3.09,2.58v0c0,1.69-1.34,2.7-3.35,2.7a5.77,5.77,0,0,1-3.89-1.38"/><path class="cls-1" d="M158.94,140.65v0a3.33,3.33,0,0,1,3.44-3.34,3,3,0,0,1,2.74,1.44l-1.53,1.13a1.4,1.4,0,0,0-1.2-.67,1.33,1.33,0,0,0-1.26,1.42v0a1.33,1.33,0,0,0,1.28,1.46,1.52,1.52,0,0,0,1.23-.66l1.51,1.09a3.18,3.18,0,0,1-2.86,1.47,3.31,3.31,0,0,1-3.35-3.33"/><path class="cls-1" d="M166,135.17h2.25v3.12a2.34,2.34,0,0,1,1.92-1,2.1,2.1,0,0,1,2.18,2.36v4.2h-2.25v-3.48c0-.7-.37-1.08-.9-1.08a1,1,0,0,0-1,1.08v3.48H166Z"/><path class="cls-1" d="M173.2,140.65v0a3.56,3.56,0,0,1,7.1,0v0a3.56,3.56,0,0,1-7.1,0m4.9,0v0a1.39,1.39,0,0,0-1.36-1.44,1.34,1.34,0,0,0-1.34,1.42v0a1.39,1.39,0,0,0,1.36,1.45,1.34,1.34,0,0,0,1.34-1.42"/><path class="cls-1" d="M181,140.65v0a3.42,3.42,0,0,1,3.56-3.35,3.38,3.38,0,0,1,3.53,3.33v0a3.55,3.55,0,0,1-7.09,0m4.9,0v0a1.39,1.39,0,0,0-1.36-1.44,1.34,1.34,0,0,0-1.34,1.42v0a1.39,1.39,0,0,0,1.36,1.45,1.34,1.34,0,0,0,1.34-1.42"/><rect class="cls-1" x="189.07" y="135.17" width="2.25" height="8.66"/><path class="cls-2" d="M102,160.47h-1.64a2.55,2.55,0,0,1-2.46-2,2.08,2.08,0,0,1-1.73,1c-1.74,0-2.82-1.3-2.82-3.19s1.08-3.3,2.82-3.3h3.35v4.3c0,1.06.5,1.63,1.52,1.63h1Zm-4.06-4.33v-2H96.54c-1.06,0-1.71.84-1.71,2.11,0,1,.59,1.94,1.5,1.94s1.58-.93,1.58-2.08m-1.11-4.25H95.31v-1.52H96.8Zm2.57,0h-1.5v-1.52h1.5Z"/><path class="cls-2" d="M103,153.06h-1.49v-1.51H103Zm4.87,7.41h-6.27v-1.55H103a.92.92,0,0,0,.91-.46,2.31,2.31,0,0,0,.17-1v-3.12h1.5v3a2.63,2.63,0,0,1-.32,1.57h2.6Zm-3.57-9.54H102.8v-1.52h1.48Zm1.28,2.13h-1.49v-1.51h1.49Z"/><path class="cls-2" d="M108.79,163.45H107.3v-1.52h1.49ZM111.4,158c0,1.65-.76,2.46-2.27,2.46h-1.6v-1.55h1.27a1,1,0,0,0,1-.44,2.93,2.93,0,0,0,.11-1v-3.19h1.52Zm0,5.44h-1.5v-1.52h1.5Z"/><path class="cls-2" d="M121.49,160.47h-8.82v-1.55h4.92c0-1.77-.69-2.81-2.06-3.11a6.69,6.69,0,0,0-1.38-.12v-1.38c.75,0,1.23,0,1.42,0a3.71,3.71,0,0,1,.81.19c1.82.62,2.73,2.08,2.74,4.4h2.37Z"/><path class="cls-2" d="M131.74,160.47h-10.9v-1.55h7.84a3.35,3.35,0,0,0-.7-2.15,2.83,2.83,0,0,0-2.34-1,2.9,2.9,0,0,0-1.14.26,3.37,3.37,0,0,0-1.22.86c-.15-.29-.39-.68-.73-1.2a5,5,0,0,1,1.45-1,4.43,4.43,0,0,1,1.79-.38,4.55,4.55,0,0,1,2.47.65,4.64,4.64,0,0,1,2,4h1.44Z"/><path class="cls-2" d="M135.2,158c0,1.65-.76,2.46-2.28,2.46h-1.6v-1.55h1.29a1,1,0,0,0,1-.44,2.93,2.93,0,0,0,.11-1v-5.79h1.52Z"/><rect class="cls-2" x="136.6" y="151.7" width="1.51" height="8.77"/><path class="cls-2" d="M150.89,160.47h-1.65a2.53,2.53,0,0,1-2.45-2,2.09,2.09,0,0,1-1.74,1c-1.74,0-2.81-1.3-2.81-3.19s1.07-3.3,2.81-3.3h3.35v4.3c0,1.06.5,1.63,1.52,1.63h1Zm-4.06-4.33v-2h-1.37c-1.06,0-1.72.84-1.72,2.11,0,1,.59,1.94,1.5,1.94s1.59-.93,1.59-2.08m-1.12-4.25h-1.49v-1.52h1.49Zm2.57,0h-1.49v-1.52h1.49Z"/><path class="cls-2" d="M163.6,160.47H150.13v-1.55h1.52c.77,0,1.15-.53,1.15-1.6V155h1.52v1.89a5.43,5.43,0,0,1,4.17-2.57c2.3,0,3.46,1.56,3.5,4.64h1.61Zm-3.18-1.55,0-.43c0-1.75-.82-2.85-2.11-2.85-1.52,0-3.13,1.41-4,3.28Zm-1.37-5.86h-1.5v-1.51h1.5Z"/><path class="cls-2" d="M174.33,160.47H163.27v-1.55h1.88a3.61,3.61,0,0,1-.36-1.41,2.69,2.69,0,0,1,5.37,0,3.89,3.89,0,0,1-.36,1.41h1.8c0-.14,0-.28,0-.42a4.62,4.62,0,0,0-3.37-4.69l.19-1.46c2.95.6,4.69,3.15,4.69,6.57h1.21Zm-5.6-3a1.26,1.26,0,1,0-2.5,0,1.27,1.27,0,1,0,2.5,0"/><path class="cls-2" d="M180.23,160.47H174v-1.55h1.41a.92.92,0,0,0,.91-.46,2.33,2.33,0,0,0,.16-1v-3.12H178v3a2.54,2.54,0,0,1-.33,1.57h2.61ZM178,153.06h-1.49v-1.51H178Z"/><path class="cls-2" d="M183.67,158c0,1.65-.76,2.46-2.28,2.46h-1.61v-1.55h1.29a1,1,0,0,0,1-.44,2.93,2.93,0,0,0,.11-1v-5.79h1.52Z"/><rect class="cls-2" x="185.07" y="151.7" width="1.51" height="8.77"/><path class="cls-2" d="M199.35,160.47h-1.64a2.54,2.54,0,0,1-2.46-2,2.08,2.08,0,0,1-1.74,1c-1.74,0-2.81-1.3-2.81-3.19s1.07-3.3,2.81-3.3h3.36v4.3c0,1.06.5,1.63,1.52,1.63h1Zm-4.06-4.33v-2h-1.37c-1.06,0-1.71.84-1.71,2.11,0,1,.58,1.94,1.49,1.94s1.59-.93,1.59-2.08m-1.11-4.25h-1.5v-1.52h1.5Zm2.56,0h-1.49v-1.52h1.49Z"/><path class="cls-2" d="M202.56,151a1,1,0,0,1,0,.26c0,.25-.2.48-.62.48-.23,0-.42-.14-.6-.44,0,.43-.24.72-.65.72a.57.57,0,0,1-.58-.52l-.22-1,.43-.11.21.94c0,.15.11.23.2.23s.33-.22.33-.4a.9.9,0,0,0,0-.16l-.15-.72.45-.09.15.7c0,.27.19.42.42.42s.17-.07.17-.2a.41.41,0,0,0,0-.11l-.19-.94.45-.08Z"/><path class="cls-2" d="M200.32,163.45h-1.5v-1.52h1.5Zm2.6-5.44c0,1.65-.76,2.46-2.26,2.46h-1.61v-1.55h1.28a1,1,0,0,0,1-.44,2.93,2.93,0,0,0,.11-1v-3.19h1.52Zm0,5.44h-1.49v-1.52h1.49Z"/><path class="cls-2" d="M211.93,160.47h-1.85c-.2,1.5-1.2,2.24-3,2.24v-1.19a1.4,1.4,0,0,0,1.51-1.05h-1.46a3,3,0,0,1-3-3.16,2.93,2.93,0,0,1,3-3,2.84,2.84,0,0,1,2.83,3.06v1.57h1.86Zm-3.39-1.55v-1.86a1.34,1.34,0,0,0-1.33-1.37,1.42,1.42,0,0,0-1.46,1.54,1.58,1.58,0,0,0,1.45,1.69Z"/><path class="cls-2" d="M215.43,158c0,1.65-.76,2.46-2.28,2.46h-1.6v-1.55h1.29a1,1,0,0,0,1-.44,2.93,2.93,0,0,0,.11-1v-3.19h1.52Zm0-4.95h-1.48v-1.51h1.48Z"/><path class="cls-2" d="M220.85,160.47h-1.78a2.09,2.09,0,0,1-1.69-.7,2.69,2.69,0,0,1-.54-1.77v-6.29h1.51v5.68a1.54,1.54,0,0,0,.43,1.3,2.14,2.14,0,0,0,1.17.23h.9Z"/><path class="cls-2" d="M224.32,158c0,1.65-.76,2.46-2.26,2.46H220.4v-1.55h1.33c.5,0,.82-.15,1-.44a2.81,2.81,0,0,0,.11-1v-3.19h1.52Zm-2.39-4.95h-1.46v-1.35h1.46Zm1.16-2h-1.47v-1.34h1.47Zm1.19,2h-1.46v-1.35h1.46Z"/><path class="cls-3" d="M260.55,168.07C224.76,173,189,181.6,174.94,195.94c19.41-12.13,57.82-18.51,92.79-19.82L314.38,20.71Q275.66,25,229.79,54.15,268.87,38.82,299,35.57q-38.44,132.51-38.45,132.5"/><path class="cls-3" d="M275.33,178.48c-30.54,3.8-68.2,3.16-88.3,16.57,19.82-9.12,60.47-8.76,95.28-9.28L332.68,52.56a163.44,163.44,0,0,0-26.36,3.71l-3,9.78q7.05-.84,13.66-1.19-41.61,113.63-41.62,113.62"/><path class="cls-3" d="M285.62,193.35c-19.35-2.71-55.07-9.22-88.38,2.28,30-6.44,67.41,1.82,94.89,5.61L350.6,73a159.36,159.36,0,0,0-22.7.87l-3.84,9.85q5.18-.06,10.1.12L285.62,193.35"/><path class="cls-3" d="M90.05,168.07c35.79,4.92,71.58,13.53,85.61,27.87-19.41-12.13-57.82-18.51-92.79-19.82L36.22,20.71Q75,25,120.81,54.15,81.75,38.82,51.6,35.57,90,168.08,90.05,168.07"/><path class="cls-3" d="M75.27,178.48c30.54,3.8,68.2,3.16,88.3,16.57-19.82-9.12-60.46-8.76-95.28-9.28L17.92,52.56a163.29,163.29,0,0,1,26.36,3.71l3,9.78q-7.05-.84-13.66-1.19L75.27,178.48"/><path class="cls-3" d="M65,193.35c19.35-2.71,55.07-9.22,88.38,2.28-30-6.44-67.41,1.82-94.89,5.61L0,73a159.45,159.45,0,0,1,22.71.87l3.83,9.85q-5.17-.06-10.09.12L65,193.35"/><path class="cls-2" d="M203.85,146.45a43.49,43.49,0,0,1-16.92-32.39l0-71.17v-.22a26.29,26.29,0,0,0-2.3-9.63,26.5,26.5,0,0,0-50.67,10.88V96.51h18.63V43.92a7.81,7.81,0,0,1,2.31-5.56,8,8,0,0,1,2.51-1.7,7.93,7.93,0,0,1,6.1,0A8.07,8.07,0,0,1,166,38.34a8.51,8.51,0,0,1,1.63,2.36,4.21,4.21,0,0,1,.64,2.41l0,.21q0,35.07,0,70.14H117V43.93a43.44,43.44,0,0,1,86.84-2.07l0,.61v104Z"/><path class="cls-1" d="M152.55,60.84V43.92a7.93,7.93,0,0,1,4.82-7.26,8.17,8.17,0,0,1,3-.61,7.94,7.94,0,0,1,3.05.61A8.07,8.07,0,0,1,166,38.34a8.51,8.51,0,0,1,1.63,2.36,4.21,4.21,0,0,1,.64,2.41l0,.21q0,35.07,0,70.14h0V60.29l0-.21a4.21,4.21,0,0,0-.64-2.41A8.32,8.32,0,0,0,166,55.32a7.93,7.93,0,0,0-2.51-1.69,7.83,7.83,0,0,0-8.61,1.7,8,8,0,0,0-1.7,2.52,7.83,7.83,0,0,0-.61,3m9.67-43.36c-.6,0-1.2-.06-1.79-.06s-1.2,0-1.8.06A43.42,43.42,0,0,0,117,60.62V43.93a43.44,43.44,0,0,1,86.84-2.07l0,.61v17l0-.6A43.31,43.31,0,0,0,200,43a43.44,43.44,0,0,0-37.82-25.56m-28.3,79h18.63v16.95H133.92Z"/><path class="cls-2" d="M235.76,158.45a42.54,42.54,0,0,1-4.23-3.71,43.5,43.5,0,0,1-12.43-25.58V54.05l0-1A60.72,60.72,0,0,0,183.89.82,44.22,44.22,0,0,1,192.33,0a43.45,43.45,0,0,1,43.4,41.39l0,.61V158.45Z"/></g></g></svg>